<svg width="76" height="17" viewBox="0 0 76 17" fill="none" xmlns="http://www.w3.org/2000/svg">
<g clip-path="url(#clip0_23117_38715)">
<path d="M30.744 15.5394C29.8956 14.741 29.8366 13.8917 29.7702 13.4344C29.3127 10.03 30.5227 6.07401 29.4381 2.6624C28.2946 -0.741956 23.8088 -0.458865 21.5143 1.68247C21.3888 1.79861 21.2634 1.92926 21.138 2.05266C21.0273 2.16154 20.8724 2.11073 20.8945 1.90023C20.9166 1.51552 20.9314 1.14532 20.9535 0.811417C20.983 0.237975 20.3928 -0.161256 19.8616 0.0637653C17.4785 1.06547 15.73 1.68973 14.6307 2.0454C14.3429 2.13977 14.1585 2.40108 14.1585 2.69143C14.1585 2.98178 14.3503 3.22858 14.6233 3.33746C15.0807 3.51167 15.6709 3.89639 15.8259 4.70937C16.1505 6.40066 16.1431 12.4762 15.8259 14.1603C15.73 14.6466 15.4422 15.0603 15.0438 15.3289C14.7856 15.5031 14.6233 15.7717 14.6233 16.0766C14.6233 16.5919 15.0659 16.9912 15.5898 16.9549C17.449 16.8315 19.3156 16.8315 21.1749 16.9549C21.6987 16.9912 22.1414 16.5919 22.1414 16.0766C22.1414 15.7717 21.9717 15.4959 21.7208 15.3289C21.3151 15.0603 21.0273 14.6466 20.9388 14.1603C20.7765 13.2965 20.7248 7.05394 20.7617 6.40066C20.7617 6.3934 20.8134 3.31569 23.0046 3.31569C23.4399 3.31569 23.8235 3.40279 24.1482 3.62781C24.8933 4.13593 25.0114 5.11586 25.063 5.62397C25.4246 9.26061 24.7458 14.4288 24.7458 14.4288C24.7089 14.7047 24.672 15.0095 24.6351 15.3434C24.5613 15.975 24.9745 16.5557 25.5942 16.7299C26.1919 16.8968 26.9149 16.9912 27.6896 16.9912C28.9069 16.9912 29.9915 16.7589 30.6703 16.396C30.9949 16.2217 31.0465 15.7862 30.7735 15.5322L30.744 15.5394Z" fill="#3163F3"/>
<path d="M44.74 13.6522C44.0243 13.6522 43.7366 13.0932 43.6333 12.5561C43.471 11.7141 43.3898 9.77598 43.3898 7.83789C43.3898 6.45147 43.3898 3.85283 42.8143 2.32124C41.4494 -1.3154 31.8802 -0.516935 31.5925 3.96897C31.6073 5.64575 34.1231 6.01594 34.9421 4.68033C35.4364 3.9472 35.5397 2.88016 36.2996 2.48093C37.4284 1.8349 38.6753 2.9092 38.7638 4.07786C39.059 5.85625 37.3547 6.57487 35.8791 7.07572C34.3961 7.62739 32.773 8.30245 31.8286 9.57273C27.815 14.9878 35.1708 19.9019 39.1032 14.9152C39.177 14.8208 39.3172 14.8498 39.3467 14.966C39.7156 16.3887 40.5862 16.9984 42.047 16.9984C43.4046 16.9984 44.8433 16.0548 45.2564 14.2982C45.3302 13.9715 45.072 13.6594 44.7252 13.6594L44.74 13.6522ZM38.9704 11.3366C38.9704 13.3182 36.9489 14.3345 35.7684 13.2529C33.9313 11.489 36.1668 8.32423 38.7343 8.1355C38.8598 8.12824 38.9704 8.22986 38.9704 8.36052V11.3366Z" fill="#3163F3"/>
<path d="M61.4583 15.5394C60.6099 14.741 60.5509 13.8917 60.4845 13.4344C60.027 10.03 61.237 6.07401 60.1524 2.6624C59.0089 -0.741956 54.5231 -0.458865 52.2286 1.68247C52.1031 1.79861 51.9777 1.92926 51.8523 2.05266C51.7416 2.16154 51.5867 2.11073 51.6088 1.90023C51.6309 1.51552 51.6457 1.14532 51.6678 0.811417C51.6973 0.237975 51.1071 -0.161256 50.5759 0.0637653C48.1928 1.06547 46.4443 1.68973 45.345 2.0454C45.0572 2.13977 44.8728 2.40108 44.8728 2.69143C44.8728 2.98178 45.0646 3.22858 45.3376 3.33746C45.795 3.51167 46.3852 3.89639 46.5402 4.70937C46.8648 6.40066 46.8574 12.4762 46.5402 14.1603C46.4443 14.6466 46.1565 15.0603 45.7581 15.3289C45.4999 15.5031 45.3376 15.7717 45.3376 16.0766C45.3376 16.5919 45.7802 16.9912 46.3041 16.9549C48.1633 16.8315 50.0299 16.8315 51.8892 16.9549C52.413 16.9912 52.8557 16.5919 52.8557 16.0766C52.8557 15.7717 52.686 15.4959 52.4351 15.3289C52.0294 15.0603 51.7416 14.6466 51.6531 14.1603C51.4908 13.2965 51.4391 7.05394 51.476 6.40066C51.476 6.3934 51.5277 3.31569 53.7189 3.31569C54.1542 3.31569 54.5378 3.40279 54.8625 3.62781C55.6076 4.13593 55.7257 5.11586 55.7773 5.62397C56.1389 9.26061 55.4601 14.4288 55.4601 14.4288C55.4232 14.7047 55.3863 15.0095 55.3494 15.3434C55.2756 15.975 55.6888 16.5557 56.3085 16.7299C56.9062 16.8968 57.6292 16.9912 58.4039 16.9912C59.6212 16.9912 60.7058 16.7589 61.3846 16.396C61.7092 16.2217 61.7608 15.7862 61.4878 15.5322L61.4583 15.5394Z" fill="#3163F3"/>
<path d="M75.4543 13.6522C74.7386 13.6522 74.4509 13.0932 74.3476 12.5561C74.1853 11.7141 74.1041 9.77598 74.1041 7.83789C74.1041 6.45147 74.1041 3.85283 73.5286 2.32124C72.1637 -1.3154 62.5945 -0.516935 62.3068 3.96897C62.3216 5.64575 64.8374 6.01594 65.6564 4.68033C66.1507 3.9472 66.254 2.88016 67.0139 2.48093C68.1427 1.8349 69.3896 2.9092 69.4781 4.07786C69.7733 5.85625 68.069 6.57487 66.5934 7.07572C65.1104 7.62739 63.4873 8.30245 62.5429 9.57273C58.5293 14.9878 65.8851 19.9019 69.8175 14.9152C69.8913 14.8208 70.0315 14.8498 70.061 14.966C70.4299 16.3887 71.3005 16.9984 72.7613 16.9984C74.1189 16.9984 75.5576 16.0548 75.9707 14.2982C76.0445 13.9715 75.7863 13.6594 75.4395 13.6594L75.4543 13.6522ZM69.6921 11.3366C69.6921 13.3182 67.6706 14.3345 66.4901 13.2529C64.653 11.489 66.8885 8.32423 69.456 8.1355C69.5814 8.12824 69.6921 8.22986 69.6921 8.36052V11.3366Z" fill="#3163F3"/>
<path d="M14.0699 13.6522C13.3543 13.6522 13.0665 13.0932 12.9632 12.5561C12.8009 11.7141 12.7198 9.77598 12.7198 7.83789C12.7198 6.45147 12.7198 3.85283 12.1443 2.32124C10.7794 -1.3154 1.21021 -0.516935 0.922467 3.96897C0.937223 5.64575 3.45309 6.01594 4.27204 4.68033C4.76637 3.9472 4.86966 2.88016 5.62958 2.48093C6.75841 1.8349 8.00527 2.9092 8.09381 4.07786C8.38893 5.85625 6.68463 6.57487 5.20904 7.07572C3.72608 7.62739 2.10293 8.30245 1.15856 9.57273C-2.85503 14.9878 4.50076 19.9019 8.43319 14.9152C8.50697 14.8208 8.64715 14.8498 8.67667 14.966C9.04556 16.3887 9.91616 16.9984 11.377 16.9984C12.7345 16.9984 14.1732 16.0548 14.5864 14.2982C14.6602 13.9715 14.4019 13.6594 14.0552 13.6594L14.0699 13.6522ZM8.30777 11.3366C8.30777 13.3182 6.28622 14.3345 5.10575 13.2529C3.26865 11.489 5.50416 8.32423 8.07168 8.1355C8.1971 8.12824 8.30777 8.22986 8.30777 8.36052V11.3366Z" fill="#3163F3"/>
</g>
<defs>
<clipPath id="clip0_23117_38715">
<rect width="76" height="17" fill="white"/>
</clipPath>
</defs>
</svg>
